<?xml version="1.0" encoding="UTF-8"?>
<svg xmlns="http://www.w3.org/2000/svg" xmlns:xlink="http://www.w3.org/1999/xlink" width="512px" height="512px"
	viewBox="0 0 512 512" version="1.1">
	<path
		d="M 271.601562 90.398438 C 294.398438 92 314.800781 75.199219 316.800781 51.601562 C 318.398438 28.800781 301.601562 8.398438 278 6.398438 C 255.199219 4.800781 234.800781 21.601562 232.800781 45.199219 C 231.199219 68.398438 248.800781 88.800781 271.601562 90.398438 " />
	<path
		d="M 236 107.601562 C 244 101.601562 254 98.398438 265.199219 98.800781 C 279.199219 100 291.601562 108.800781 298.398438 119.199219 L 340.398438 202.800781 L 397.601562 242.800781 C 402.398438 246.800781 405.601562 252.800781 405.199219 259.199219 C 404.800781 269.601562 395.199219 277.199219 384.800781 276 C 382 276 378.800781 274.800781 376 273.199219 L 314.398438 231.199219 C 312.800781 229.601562 310.800781 227.601562 309.601562 225.199219 L 293.601562 194 L 274.800781 277.199219 L 349.199219 365.199219 C 350.800781 368 352 371.199219 352.800781 374 L 372.800781 480 C 372.800781 482.398438 372.800781 484 372.800781 486 C 371.601562 502 358 512.800781 342.398438 512.398438 C 329.601562 511.199219 320 502 316.800781 490 L 298 391.199219 L 237.601562 324 L 223.601562 388.398438 C 223.199219 391.199219 218.800781 397.601562 217.601562 400 L 160 498 C 154 506.800781 144.800781 512.800781 133.601562 511.601562 C 117.601562 510.398438 106 496.800781 107.199219 481.199219 C 107.601562 476.398438 109.601562 472.398438 111.199219 468.800781 L 165.199219 378.800781 L 210 180 L 180.800781 203.601562 L 164.800781 274.398438 C 163.199219 283.199219 154.398438 290.800781 144.800781 290.398438 C 134.398438 290 126.800781 280.398438 127.199219 270 C 127.199219 269.601562 127.199219 268.398438 127.601562 267.601562 L 145.601562 185.199219 C 146.800781 181.601562 148.398438 178.800781 151.601562 176.398438 Z M 236 107.601562 " />
</svg>